<svg xmlns="http://www.w3.org/2000/svg" viewBox="0 0 24 24">
  <title>Etsy</title>
  <path class="st0" d="M20,2.9H3.9c-0.5,0-1,0.4-1,1V20c0,0.5,0.4,1,1,1H20c0.5,0,1-0.4,1-1V3.9C21,3.4,20.5,2.9,20,2.9z M18.4,16.1
    c-0.1,1-0.2,2-0.4,3c0,0.4,0,0.4-0.4,0.4c-2.9,0-5.8-0.1-8.7-0.1c-1,0-2.1,0.1-3.1,0.1c-0.1,0-0.3,0-0.4,0c0-0.3,0-0.6,0-0.9
    c0.4-0.1,0.8-0.1,1.1-0.2c0.2,0,0.3-0.1,0.5-0.1c0.2-0.1,0.4-0.3,0.4-0.5c0-0.1,0-0.2,0-0.4c0-2.2,0-4.3,0-6.5c0-1.3,0-2.7-0.1-4
    c0-0.8-0.2-1-1-1.1C6.2,5.6,5.9,5.6,5.6,5.5c-0.1,0-0.2-0.1-0.2-0.2c0-0.2,0-0.5,0-0.8c4.1,0.1,8.3,0.2,12.4-0.1
    c-0.1,1.4-0.2,2.8-0.3,4.2c-0.3,0-0.5,0-0.7,0c-0.1,0-0.2-0.1-0.2-0.2c-0.1-0.4-0.2-0.8-0.3-1.3C16.2,7,16.1,6.7,16,6.5
    c-0.3-0.5-0.7-0.8-1.3-0.8c-1.5,0-3,0-4.5,0c-0.4,0-0.4,0-0.4,0.4c0,1.7,0,3.3,0,5c0,0.1,0,0.2,0,0.3c0.7,0,1.3,0,1.9,0
    c0.4,0,0.8,0,1.2-0.1c0.5,0,0.7-0.2,0.9-0.7c0.1-0.4,0.2-0.8,0.3-1.2c0-0.2,0.1-0.2,0.3-0.2c0.2,0,0.4,0,0.7,0c0,0.1,0,0.3,0,0.4
    c0,1.6,0,3.1,0,4.7c0,0.2,0,0.3-0.3,0.3c-0.7,0-0.7,0-0.8-0.6c-0.1-0.2-0.1-0.5-0.2-0.7c-0.1-0.5-0.5-0.7-1-0.7
    c-0.9,0-1.9,0-2.8-0.1c0,0-0.1,0-0.1,0c0,0.1,0,0.2,0,0.3c0,1.4,0,2.8,0,4.2c0,0.9,0.3,1.3,1.2,1.3c1.3,0,2.7,0,4,0
    c0.8,0,1.4-0.5,1.7-1.2c0.3-0.6,0.5-1.2,0.8-1.8c0.1-0.3,0.2-0.4,0.5-0.3c0.1,0,0.3,0,0.4,0C18.5,15.4,18.4,15.7,18.4,16.1z" fill="currentColor"/>
</svg>
