<svg xmlns="http://www.w3.org/2000/svg" width="24" height="24" viewBox="0 0 24 24">
  <path
     d="M 22.674033,0 H 1.3259669 C 0.66298343,0 0,0.53038674 0,1.3259669 V 22.674033 C 0,23.337017 0.53038674,24 1.3259669,24 H 22.674033 C 23.337017,24 24,23.469613 24,22.674033 V 1.3259669 C 24,0.66298343 23.337017,0 22.674033,0 Z m -2.121547,17.502762 c -0.132596,1.325967 -0.265193,2.651934 -0.530387,3.977901 0,0.530387 0,0.530387 -0.530386,0.530387 -3.845304,0 -7.690608,-0.132597 -11.5359119,-0.132597 -1.3259668,0 -2.7845304,0.132597 -4.1104972,0.132597 -0.1325967,0 -0.3977901,0 -0.5303868,0 0,-0.39779 0,-0.79558 0,-1.19337 0.5303868,-0.132597 1.0607735,-0.132597 1.4585636,-0.265194 0.2651933,0 0.39779,-0.132596 0.6629834,-0.132596 0.2651934,-0.132597 0.5303867,-0.397791 0.5303867,-0.662984 0,-0.132597 0,-0.265193 0,-0.530387 0,-2.917127 0,-5.701657 0,-8.618784 0,-1.7237571 0,-3.5801107 -0.1325967,-5.3038676 0,-1.0607735 -0.2651933,-1.3259668 -1.3259668,-1.4585635 C 4.3756906,3.5801105 3.9779006,3.5801105 3.5801105,3.4475138 c -0.1325967,0 -0.2651934,-0.1325967 -0.2651934,-0.2651934 0,-0.2651933 0,-0.6629834 0,-1.0607734 5.4364641,0.1325966 11.0055249,0.2651933 16.4419889,-0.1325967 -0.132597,1.8563536 -0.265193,3.7127072 -0.39779,5.5690607 -0.39779,0 -0.662983,0 -0.928177,0 -0.132596,0 -0.265193,-0.1325966 -0.265193,-0.2651933 C 18.033149,6.7624309 17.900552,6.2320442 17.767956,5.5690608 17.635359,5.4364641 17.502762,5.038674 17.370166,4.7734807 16.972376,4.1104972 16.441989,3.7127072 15.646409,3.7127072 c -1.98895,0 -3.977901,0 -5.966851,0 -0.5303867,0 -0.5303867,0 -0.5303867,0.5303867 0,2.2541437 0,4.3756906 0,6.6298341 0,0.132597 0,0.265194 0,0.39779 0.9281767,0 1.7237567,0 2.5193367,0 0.530387,0 1.060774,0 1.591161,-0.132596 0.662983,0 0.928176,-0.265194 1.19337,-0.928177 0.132596,-0.530387 0.265193,-1.0607737 0.39779,-1.5911605 0,-0.2651933 0.132596,-0.2651933 0.39779,-0.2651933 0.265193,0 0.530387,0 0.928177,0 0,0.1325966 0,0.39779 0,0.5303867 0,2.1215471 0,4.1104971 0,6.2320441 0,0.265193 0,0.39779 -0.39779,0.39779 -0.928177,0 -0.928177,0 -1.060774,-0.79558 -0.132597,-0.265193 -0.132597,-0.662983 -0.265193,-0.928177 -0.132597,-0.662983 -0.662984,-0.928177 -1.325967,-0.928177 -1.19337,0 -2.519337,0 -3.7127074,-0.132596 0,0 -0.1325966,0 -0.1325966,0 0,0.132596 0,0.265193 0,0.39779 0,1.856353 0,3.712707 0,5.569061 0,1.19337 0.39779,1.723757 1.59116,1.723757 1.723757,0 3.580111,0 5.303868,0 1.060773,0 1.856353,-0.662984 2.254143,-1.591161 0.39779,-0.79558 0.662984,-1.59116 1.060774,-2.38674 0.132596,-0.39779 0.265193,-0.530387 0.662983,-0.39779 0.132597,0 0.39779,0 0.530387,0 0,0.530387 -0.132597,0.928177 -0.132597,1.458563 z" />
</svg>
